<mxfile host="65bd71144e">
    <diagram name="Page-1" id="dNH2lgzFV1OV_xQoo7PK">
        <mxGraphModel dx="1078" dy="551" grid="1" gridSize="10" guides="1" tooltips="1" connect="1" arrows="1" fold="1" page="1" pageScale="1" pageWidth="827" pageHeight="1169" background="#97D077" math="0" shadow="1">
            <root>
                <mxCell id="0"/>
                <mxCell id="1" parent="0"/>
                <mxCell id="sxhaSrY762Fc3aGaRnKX-9" style="edgeStyle=orthogonalEdgeStyle;rounded=0;orthogonalLoop=1;jettySize=auto;html=1;entryX=0.5;entryY=0;entryDx=0;entryDy=0;fontColor=#000000;" parent="1" source="sxhaSrY762Fc3aGaRnKX-1" target="sxhaSrY762Fc3aGaRnKX-5" edge="1">
                    <mxGeometry relative="1" as="geometry"/>
                </mxCell>
                <mxCell id="sxhaSrY762Fc3aGaRnKX-1" value="Start" style="rounded=1;whiteSpace=wrap;html=1;arcSize=47;fillColor=#f5f5f5;fontColor=#000000;strokeColor=#666666;" parent="1" vertex="1">
                    <mxGeometry x="40" y="50" width="120" height="60" as="geometry"/>
                </mxCell>
                <mxCell id="sxhaSrY762Fc3aGaRnKX-2" value="End" style="rounded=1;whiteSpace=wrap;html=1;arcSize=47;labelBackgroundColor=none;fillColor=#f5f5f5;strokeColor=#666666;fontColor=#333333;" parent="1" vertex="1">
                    <mxGeometry x="40" y="780" width="120" height="60" as="geometry"/>
                </mxCell>
                <mxCell id="sxhaSrY762Fc3aGaRnKX-11" value="No" style="edgeStyle=orthogonalEdgeStyle;rounded=0;orthogonalLoop=1;jettySize=auto;html=1;entryX=0.5;entryY=0;entryDx=0;entryDy=0;fontColor=#000000;" parent="1" source="sxhaSrY762Fc3aGaRnKX-4" target="sxhaSrY762Fc3aGaRnKX-8" edge="1">
                    <mxGeometry relative="1" as="geometry"/>
                </mxCell>
                <mxCell id="sxhaSrY762Fc3aGaRnKX-27" value="Yes" style="edgeStyle=orthogonalEdgeStyle;rounded=0;orthogonalLoop=1;jettySize=auto;html=1;entryX=0;entryY=0.5;entryDx=0;entryDy=0;fontColor=#000000;labelBackgroundColor=#FFFFFF;strokeColor=#000000;" parent="1" source="sxhaSrY762Fc3aGaRnKX-4" target="sxhaSrY762Fc3aGaRnKX-26" edge="1">
                    <mxGeometry relative="1" as="geometry"/>
                </mxCell>
                <mxCell id="sxhaSrY762Fc3aGaRnKX-4" value="Is petType ==&lt;br&gt;cat?" style="rhombus;whiteSpace=wrap;html=1;fillColor=#fff2cc;strokeColor=#d6b656;fontColor=#000000;" parent="1" vertex="1">
                    <mxGeometry x="35" y="340" width="130" height="90" as="geometry"/>
                </mxCell>
                <mxCell id="sxhaSrY762Fc3aGaRnKX-13" style="edgeStyle=orthogonalEdgeStyle;rounded=0;orthogonalLoop=1;jettySize=auto;html=1;entryX=0.5;entryY=0;entryDx=0;entryDy=0;fontColor=#000000;" parent="1" source="sxhaSrY762Fc3aGaRnKX-5" target="sxhaSrY762Fc3aGaRnKX-12" edge="1">
                    <mxGeometry relative="1" as="geometry"/>
                </mxCell>
                <mxCell id="sxhaSrY762Fc3aGaRnKX-5" value="Get petType" style="shape=parallelogram;perimeter=parallelogramPerimeter;whiteSpace=wrap;html=1;fixedSize=1;fillColor=#f5f5f5;fontColor=#000000;strokeColor=#666666;" parent="1" vertex="1">
                    <mxGeometry x="40" y="140" width="120" height="60" as="geometry"/>
                </mxCell>
                <mxCell id="sxhaSrY762Fc3aGaRnKX-18" value="Yes" style="edgeStyle=orthogonalEdgeStyle;rounded=0;orthogonalLoop=1;jettySize=auto;html=1;entryX=0;entryY=0.5;entryDx=0;entryDy=0;fontColor=#000000;" parent="1" source="sxhaSrY762Fc3aGaRnKX-8" target="sxhaSrY762Fc3aGaRnKX-16" edge="1">
                    <mxGeometry relative="1" as="geometry"/>
                </mxCell>
                <mxCell id="sxhaSrY762Fc3aGaRnKX-22" value="" style="edgeStyle=orthogonalEdgeStyle;rounded=0;orthogonalLoop=1;jettySize=auto;html=1;entryX=0.5;entryY=0;entryDx=0;entryDy=0;fontColor=#000000;strokeColor=#000000;" parent="1" source="sxhaSrY762Fc3aGaRnKX-8" target="sxhaSrY762Fc3aGaRnKX-2" edge="1">
                    <mxGeometry relative="1" as="geometry"/>
                </mxCell>
                <mxCell id="sxhaSrY762Fc3aGaRnKX-8" value="Is petType ==&lt;br&gt;dog?" style="rhombus;whiteSpace=wrap;html=1;fillColor=#dae8fc;strokeColor=#6c8ebf;fontColor=#000000;" parent="1" vertex="1">
                    <mxGeometry x="35" y="490" width="130" height="90" as="geometry"/>
                </mxCell>
                <mxCell id="sxhaSrY762Fc3aGaRnKX-15" style="edgeStyle=orthogonalEdgeStyle;rounded=0;orthogonalLoop=1;jettySize=auto;html=1;entryX=0.5;entryY=0;entryDx=0;entryDy=0;fontColor=#000000;strokeColor=#000000;" parent="1" source="sxhaSrY762Fc3aGaRnKX-12" target="sxhaSrY762Fc3aGaRnKX-4" edge="1">
                    <mxGeometry relative="1" as="geometry"/>
                </mxCell>
                <mxCell id="sxhaSrY762Fc3aGaRnKX-12" value="Get petAge" style="shape=parallelogram;perimeter=parallelogramPerimeter;whiteSpace=wrap;html=1;fixedSize=1;fillColor=#f5f5f5;fontColor=#000000;strokeColor=#666666;" parent="1" vertex="1">
                    <mxGeometry x="40" y="240" width="120" height="60" as="geometry"/>
                </mxCell>
                <mxCell id="sxhaSrY762Fc3aGaRnKX-21" style="edgeStyle=orthogonalEdgeStyle;rounded=0;orthogonalLoop=1;jettySize=auto;html=1;entryX=0.5;entryY=0;entryDx=0;entryDy=0;fontColor=#000000;strokeColor=#000000;" parent="1" source="sxhaSrY762Fc3aGaRnKX-16" target="sxhaSrY762Fc3aGaRnKX-19" edge="1">
                    <mxGeometry relative="1" as="geometry"/>
                </mxCell>
                <mxCell id="sxhaSrY762Fc3aGaRnKX-16" value="realAge = petAge&lt;br&gt;* 4" style="rounded=0;whiteSpace=wrap;html=1;fillColor=#dae8fc;strokeColor=#6c8ebf;fontColor=#000000;" parent="1" vertex="1">
                    <mxGeometry x="210" y="505" width="120" height="60" as="geometry"/>
                </mxCell>
                <mxCell id="sxhaSrY762Fc3aGaRnKX-43" style="edgeStyle=orthogonalEdgeStyle;rounded=0;orthogonalLoop=1;jettySize=auto;html=1;entryX=0.5;entryY=0;entryDx=0;entryDy=0;fontColor=#000000;strokeColor=#000000;" parent="1" source="sxhaSrY762Fc3aGaRnKX-19" target="sxhaSrY762Fc3aGaRnKX-2" edge="1">
                    <mxGeometry relative="1" as="geometry"/>
                </mxCell>
                <mxCell id="sxhaSrY762Fc3aGaRnKX-19" value="Output realAge" style="shape=parallelogram;perimeter=parallelogramPerimeter;whiteSpace=wrap;html=1;fixedSize=1;fillColor=#f5f5f5;fontColor=#000000;strokeColor=#666666;" parent="1" vertex="1">
                    <mxGeometry x="210" y="690" width="120" height="60" as="geometry"/>
                </mxCell>
                <mxCell id="sxhaSrY762Fc3aGaRnKX-31" value="Yes" style="edgeStyle=orthogonalEdgeStyle;rounded=0;orthogonalLoop=1;jettySize=auto;html=1;entryX=0.5;entryY=0;entryDx=0;entryDy=0;fontColor=#000000;" parent="1" source="sxhaSrY762Fc3aGaRnKX-25" target="sxhaSrY762Fc3aGaRnKX-30" edge="1">
                    <mxGeometry relative="1" as="geometry"/>
                </mxCell>
                <mxCell id="sxhaSrY762Fc3aGaRnKX-47" style="edgeStyle=orthogonalEdgeStyle;rounded=0;orthogonalLoop=1;jettySize=auto;html=1;entryX=1;entryY=0.5;entryDx=0;entryDy=0;fontColor=#000000;strokeColor=#000000;" parent="1" source="sxhaSrY762Fc3aGaRnKX-25" target="sxhaSrY762Fc3aGaRnKX-19" edge="1">
                    <mxGeometry relative="1" as="geometry">
                        <Array as="points">
                            <mxPoint x="790" y="385"/>
                            <mxPoint x="790" y="720"/>
                        </Array>
                    </mxGeometry>
                </mxCell>
                <mxCell id="sxhaSrY762Fc3aGaRnKX-25" value="Is i &amp;lt; petAge" style="rhombus;whiteSpace=wrap;html=1;fillColor=#fff2cc;strokeColor=#d6b656;fontColor=#000000;" parent="1" vertex="1">
                    <mxGeometry x="490" y="340" width="130" height="90" as="geometry"/>
                </mxCell>
                <mxCell id="sxhaSrY762Fc3aGaRnKX-28" style="edgeStyle=orthogonalEdgeStyle;rounded=0;orthogonalLoop=1;jettySize=auto;html=1;entryX=0;entryY=0.5;entryDx=0;entryDy=0;fontColor=#000000;strokeColor=#000000;" parent="1" source="sxhaSrY762Fc3aGaRnKX-26" target="sxhaSrY762Fc3aGaRnKX-25" edge="1">
                    <mxGeometry relative="1" as="geometry"/>
                </mxCell>
                <mxCell id="sxhaSrY762Fc3aGaRnKX-26" value="i = 0&lt;br&gt;realAge = 0" style="rounded=0;whiteSpace=wrap;html=1;fillColor=#fff2cc;strokeColor=#d6b656;fontColor=#000000;" parent="1" vertex="1">
                    <mxGeometry x="210" y="355" width="120" height="60" as="geometry"/>
                </mxCell>
                <mxCell id="sxhaSrY762Fc3aGaRnKX-33" value="Yes" style="edgeStyle=orthogonalEdgeStyle;rounded=0;orthogonalLoop=1;jettySize=auto;html=1;entryX=0.5;entryY=0;entryDx=0;entryDy=0;fontColor=#000000;labelBackgroundColor=#FFFFFF;strokeColor=#000000;" parent="1" source="sxhaSrY762Fc3aGaRnKX-30" target="sxhaSrY762Fc3aGaRnKX-32" edge="1">
                    <mxGeometry relative="1" as="geometry"/>
                </mxCell>
                <mxCell id="sxhaSrY762Fc3aGaRnKX-40" value="" style="edgeStyle=orthogonalEdgeStyle;rounded=0;orthogonalLoop=1;jettySize=auto;html=1;entryX=0.5;entryY=0;entryDx=0;entryDy=0;fontColor=#000000;strokeColor=#000000;" parent="1" source="sxhaSrY762Fc3aGaRnKX-30" target="sxhaSrY762Fc3aGaRnKX-38" edge="1">
                    <mxGeometry relative="1" as="geometry"/>
                </mxCell>
                <mxCell id="sxhaSrY762Fc3aGaRnKX-30" value="Is i &amp;lt; 2" style="rhombus;whiteSpace=wrap;html=1;fillColor=#fff2cc;strokeColor=#d6b656;fontColor=#000000;" parent="1" vertex="1">
                    <mxGeometry x="490" y="490" width="130" height="90" as="geometry"/>
                </mxCell>
                <mxCell id="sxhaSrY762Fc3aGaRnKX-37" style="edgeStyle=orthogonalEdgeStyle;rounded=0;orthogonalLoop=1;jettySize=auto;html=1;entryX=0.5;entryY=1;entryDx=0;entryDy=0;fontColor=#000000;strokeColor=#000000;" parent="1" source="sxhaSrY762Fc3aGaRnKX-32" target="sxhaSrY762Fc3aGaRnKX-35" edge="1">
                    <mxGeometry relative="1" as="geometry">
                        <Array as="points">
                            <mxPoint x="555" y="700"/>
                            <mxPoint x="420" y="700"/>
                        </Array>
                    </mxGeometry>
                </mxCell>
                <mxCell id="sxhaSrY762Fc3aGaRnKX-32" value="Add 25 to realAge" style="rounded=0;whiteSpace=wrap;html=1;fillColor=#fff2cc;strokeColor=#d6b656;fontColor=#000000;" parent="1" vertex="1">
                    <mxGeometry x="495" y="620" width="120" height="60" as="geometry"/>
                </mxCell>
                <mxCell id="sxhaSrY762Fc3aGaRnKX-36" style="edgeStyle=orthogonalEdgeStyle;rounded=0;orthogonalLoop=1;jettySize=auto;html=1;entryX=0;entryY=0.5;entryDx=0;entryDy=0;fontColor=#000000;strokeColor=#000000;" parent="1" source="sxhaSrY762Fc3aGaRnKX-35" target="sxhaSrY762Fc3aGaRnKX-25" edge="1">
                    <mxGeometry relative="1" as="geometry">
                        <Array as="points">
                            <mxPoint x="420" y="385"/>
                        </Array>
                    </mxGeometry>
                </mxCell>
                <mxCell id="sxhaSrY762Fc3aGaRnKX-35" value="Add 1 to i" style="rounded=0;whiteSpace=wrap;html=1;fillColor=#fff2cc;strokeColor=#d6b656;fontColor=#000000;" parent="1" vertex="1">
                    <mxGeometry x="360" y="505" width="120" height="60" as="geometry"/>
                </mxCell>
                <mxCell id="sxhaSrY762Fc3aGaRnKX-41" style="edgeStyle=orthogonalEdgeStyle;rounded=0;orthogonalLoop=1;jettySize=auto;html=1;entryX=0.5;entryY=1;entryDx=0;entryDy=0;fontColor=#000000;strokeColor=#000000;" parent="1" source="sxhaSrY762Fc3aGaRnKX-38" target="sxhaSrY762Fc3aGaRnKX-35" edge="1">
                    <mxGeometry relative="1" as="geometry">
                        <Array as="points">
                            <mxPoint x="700" y="700"/>
                            <mxPoint x="420" y="700"/>
                        </Array>
                    </mxGeometry>
                </mxCell>
                <mxCell id="sxhaSrY762Fc3aGaRnKX-38" value="Add 4 to realAge" style="rounded=0;whiteSpace=wrap;html=1;fillColor=#fff2cc;strokeColor=#d6b656;fontColor=#000000;" parent="1" vertex="1">
                    <mxGeometry x="640" y="620" width="120" height="60" as="geometry"/>
                </mxCell>
                <mxCell id="sxhaSrY762Fc3aGaRnKX-50" value="No" style="text;html=1;align=center;verticalAlign=middle;resizable=0;points=[];autosize=1;fillColor=none;labelBackgroundColor=#FFFFFF;fontColor=#000000;" parent="1" vertex="1">
                    <mxGeometry x="80" y="590" width="40" height="30" as="geometry"/>
                </mxCell>
                <mxCell id="sxhaSrY762Fc3aGaRnKX-48" value="No" style="text;html=1;align=center;verticalAlign=middle;resizable=0;points=[];autosize=1;strokeColor=none;fillColor=none;labelBorderColor=none;labelBackgroundColor=default;fontColor=#000000;" parent="1" vertex="1">
                    <mxGeometry x="630" y="370" width="40" height="30" as="geometry"/>
                </mxCell>
                <mxCell id="sxhaSrY762Fc3aGaRnKX-51" value="No" style="text;html=1;align=center;verticalAlign=middle;resizable=0;points=[];autosize=1;strokeColor=none;fillColor=none;labelBackgroundColor=default;fontColor=#000000;" parent="1" vertex="1">
                    <mxGeometry x="630" y="520" width="40" height="30" as="geometry"/>
                </mxCell>
                <mxCell id="2" value="No" style="text;html=1;align=center;verticalAlign=middle;resizable=0;points=[];autosize=1;strokeColor=none;fillColor=none;labelBorderColor=none;labelBackgroundColor=#FFFFFF;fontColor=#000000;" vertex="1" parent="1">
                    <mxGeometry x="630" y="370" width="40" height="30" as="geometry"/>
                </mxCell>
                <mxCell id="3" value="No" style="edgeStyle=orthogonalEdgeStyle;rounded=0;orthogonalLoop=1;jettySize=auto;html=1;entryX=0.5;entryY=0;entryDx=0;entryDy=0;fontColor=#000000;labelBackgroundColor=#FFFFFF;strokeColor=#000000;" edge="1" parent="1">
                    <mxGeometry relative="1" as="geometry">
                        <mxPoint x="100" y="430" as="sourcePoint"/>
                        <mxPoint x="100" y="490" as="targetPoint"/>
                    </mxGeometry>
                </mxCell>
                <mxCell id="4" value="Yes" style="edgeStyle=orthogonalEdgeStyle;rounded=0;orthogonalLoop=1;jettySize=auto;html=1;entryX=0;entryY=0.5;entryDx=0;entryDy=0;fontColor=#000000;labelBackgroundColor=#FFFFFF;strokeColor=#000000;" edge="1" parent="1">
                    <mxGeometry relative="1" as="geometry">
                        <mxPoint x="165" y="535" as="sourcePoint"/>
                        <mxPoint x="210" y="535" as="targetPoint"/>
                    </mxGeometry>
                </mxCell>
                <mxCell id="5" value="Yes" style="edgeStyle=orthogonalEdgeStyle;rounded=0;orthogonalLoop=1;jettySize=auto;html=1;entryX=0.5;entryY=0;entryDx=0;entryDy=0;fontColor=#000000;labelBackgroundColor=#FFFFFF;strokeColor=#000000;" edge="1" parent="1">
                    <mxGeometry relative="1" as="geometry">
                        <mxPoint x="555" y="430" as="sourcePoint"/>
                        <mxPoint x="555" y="490" as="targetPoint"/>
                    </mxGeometry>
                </mxCell>
                <mxCell id="6" value="No" style="text;html=1;align=center;verticalAlign=middle;resizable=0;points=[];autosize=1;strokeColor=none;fillColor=none;labelBackgroundColor=#FFFFFF;fontColor=#000000;" vertex="1" parent="1">
                    <mxGeometry x="630" y="520" width="40" height="30" as="geometry"/>
                </mxCell>
            </root>
        </mxGraphModel>
    </diagram>
</mxfile>